<?xml version="1.0" encoding="UTF-8" standalone="no"?><!DOCTYPE svg PUBLIC "-//W3C//DTD SVG 1.1//EN" "http://www.w3.org/Graphics/SVG/1.1/DTD/svg11.dtd">
<svg width="512px" height="512px" version="1.1" xmlns="http://www.w3.org/2000/svg" xmlns:xlink="http://www.w3.org/1999/xlink" xml:space="preserve" xmlns:serif="http://www.serif.com/" style="fill-rule:evenodd;clip-rule:evenodd;stroke-linejoin:round;stroke-miterlimit:2;">
<ellipse cx="255" cy="256" rx="255" ry="256" style="fill:#ff7d00;fill-opacity:0.79;"/><g><path d="M128.434,304.447l-50.746,0l-7.05,23.878l-45.638,0l54.367,-144.65l48.756,-0l54.354,144.65l-46.806,0l-7.237,-23.878Zm-9.272,-31.278l-15.966,-52l-15.799,52l31.765,-0Z" style="fill:#fff;fill-rule:nonzero;stroke:#000;stroke-width:10px;"/><path d="M196.883,183.675l110.511,-0l-0,31.081l-65.616,-0l0,25.259l56.045,0l-0,29.207l-56.045,-0l0,59.103l-44.895,0l0,-144.65Z" style="fill:#fff;fill-rule:nonzero;stroke:#000;stroke-width:10px;"/><path d="M331.667,183.675l44.697,-0l0,54.663l46.821,-54.663l59.447,-0l-52.786,54.598l55.154,90.052l-55.044,0l-30.498,-59.487l-23.094,24.189l0,35.298l-44.697,0l-0,-144.65Z" style="fill:#fff;fill-rule:nonzero;stroke:#000;stroke-width:10px;"/></g>
</svg>