<?xml version="1.0" encoding="UTF-8" standalone="no"?><!DOCTYPE svg PUBLIC "-//W3C//DTD SVG 1.1//EN" "http://www.w3.org/Graphics/SVG/1.1/DTD/svg11.dtd"><svg width="100%" height="100%" viewBox="0 0 256 256" version="1.1" xmlns="http://www.w3.org/2000/svg" xmlns:xlink="http://www.w3.org/1999/xlink" xml:space="preserve" xmlns:serif="http://www.serif.com/" style="fill-rule:evenodd;clip-rule:evenodd;stroke-linejoin:round;stroke-miterlimit:2;"><path d="M67.943,151.016l-24.108,-0l-3.349,11.343l-21.681,0l25.828,-68.718l23.162,-0l25.822,68.718l-22.236,0l-3.438,-11.343Zm-4.405,-14.86l-7.585,-24.703l-7.506,24.703l15.091,0Z" style="fill:#fff;fill-rule:nonzero;"/><path d="M100.461,93.641l52.5,-0l-0,14.765l-31.172,0l0,12l26.625,0l0,13.875l-26.625,0l0,28.078l-21.328,0l-0,-68.718Z" style="fill:#fff;fill-rule:nonzero;"/><path d="M164.492,93.641l21.235,-0l-0,25.968l22.242,-25.968l28.242,-0l-25.077,25.938l26.202,42.78l-26.15,0l-14.488,-28.26l-10.971,11.492l-0,16.768l-21.235,0l0,-68.718Z" style="fill:#fff;fill-rule:nonzero;"/></svg>